PathFileType	4	(X/Y/Z)	C:/Users/opensim2020/Desktop/walking_exp_matlab/subject03_walking06_straight_03.trc	
DataRate	CameraRate	NumFrames	NumMarkers	Units	OrigDataRate	OrigDataStartFrame	OrigNumFrames	
100.00	100.00	6	44	mm	100.00	2100	280	
Frame#	Time	LFHD			RFHD			LBHD			RBHD			C7			T10			CLAV			STRN			RBAK			LSHO			LUPA			LELB			LFRM			LWRA			LWRB			LFIN			RSHO			RUPA			RELB			RFRM			RWRA			RWRB			RFIN			LASI			RASI			LPSI			RPSI			LTHI			LKNE			LTIB			LANK			LHEE			LTOE			RTHI			RKNE			RTIB			RANK			RHEE			RTOE			*39			*40			*41			*42			*43			
		X1	Y1	Z1	X2	Y2	Z2	X3	Y3	Z3	X4	Y4	Z4	X5	Y5	Z5	X6	Y6	Z6	X7	Y7	Z7	X8	Y8	Z8	X9	Y9	Z9	X10	Y10	Z10	X11	Y11	Z11	X12	Y12	Z12	X13	Y13	Z13	X14	Y14	Z14	X15	Y15	Z15	X16	Y16	Z16	X17	Y17	Z17	X18	Y18	Z18	X19	Y19	Z19	X20	Y20	Z20	X21	Y21	Z21	X22	Y22	Z22	X23	Y23	Z23	X24	Y24	Z24	X25	Y25	Z25	X26	Y26	Z26	X27	Y27	Z27	X28	Y28	Z28	X29	Y29	Z29	X30	Y30	Z30	X31	Y31	Z31	X32	Y32	Z32	X33	Y33	Z33	X34	Y34	Z34	X35	Y35	Z35	X36	Y36	Z36	X37	Y37	Z37	X38	Y38	Z38	X39	Y39	Z39	X40	Y40	Z40	X41	Y41	Z41	X42	Y42	Z42	X43	Y43	Z43	X44	Y44	Z44	

106	1.050	1394.98035	-235.41585	1622.12488	1528.59705	-239.80522	1622.62097	1394.98657	-360.44275	1570.10144	1526.34705	-360.28769	1570.94067	1452.62830	-388.86182	1419.25623	1449.02283	-436.79703	1108.02698	1450.37537	-270.95981	1335.93677	1446.57898	-236.40311	1169.54846	1552.71204	-446.86230	1249.35962	1295.26257	-318.88116	1376.04297	1226.38318	-359.65060	1181.04688	1214.03931	-371.52921	1058.12048	1213.99805	-357.75208	928.34540	1245.78125	-348.63034	808.91089	1195.85779	-374.28815	816.27991	1206.62158	-365.58743	731.99213	1609.85046	-308.37943	1363.31042	1690.76270	-273.70145	1149.70410	1705.34399	-231.38205	1046.08496	1703.43481	-173.62231	922.03253	1662.14587	-118.87227	841.66364	1708.44336	-142.16136	826.93048	1696.30725	-96.18802	769.91180	1338.97424	-266.94531	937.26984	1576.05164	-278.88058	941.38129	1378.66052	-430.95370	958.36768	1527.30261	-436.38785	975.73682	1285.27295	-250.03767	641.00476	1325.94629	-181.64107	478.02298	1326.15186	-196.50542	283.79550	1364.57581	-175.57285	74.52457	1404.73694	-211.15013	36.20601	1387.20825	-27.07187	55.47807	1606.96924	-368.95840	651.33643	1568.59766	-383.30392	472.36395	1564.30066	-460.81314	295.82803	1507.22339	-519.10297	87.54851	1454.13684	-564.54565	62.64210	1493.29248	-380.27121	36.92506	1445.78967	-322.13403	1678.22119												 
107	1.060	1393.86426	-226.48227	1620.77063	1528.14050	-230.64769	1621.45435	1394.62500	-351.27249	1568.68738	1525.92664	-351.00766	1569.70093	1452.32373	-379.45081	1417.94849	1448.18848	-427.38742	1106.77954	1450.14856	-261.63507	1334.63306	1446.41406	-227.07677	1168.17761	1552.04700	-437.51340	1247.99036	1294.96948	-309.43216	1374.74207	1226.35645	-351.43213	1179.85083	1214.09717	-363.71603	1057.00659	1214.10706	-350.73056	927.08417	1245.85339	-341.72961	807.85028	1196.21753	-367.80246	815.10492	1207.00793	-359.45627	730.80103	1609.53784	-299.15234	1361.91565	1690.65649	-264.25140	1148.52209	1705.26343	-221.71054	1045.15454	1702.67041	-162.52377	921.85638	1660.76660	-106.79705	842.50183	1707.00525	-129.89832	827.14154	1694.48181	-83.08949	770.91644	1338.99854	-257.38904	935.50049	1576.06787	-270.27969	940.18854	1378.03284	-421.77011	957.17975	1526.59656	-427.56683	974.75983	1285.82361	-242.91135	638.51062	1327.84094	-173.76344	476.12024	1327.30078	-180.90176	282.44135	1364.25916	-149.90202	74.07249	1404.13330	-183.97050	34.76482	1388.40295	-0.19301	59.73881	1607.12341	-362.18765	650.59412	1568.79651	-377.74841	471.63995	1564.46606	-457.34155	295.85568	1507.28821	-518.43457	88.44310	1454.30627	-564.28558	63.91112	1493.31104	-380.14685	36.89360	1445.53149	-313.40134	1677.11865												 
108	1.070	1393.35425	-217.30788	1619.57568	1527.59216	-221.59055	1620.34277	1394.23120	-342.13495	1567.24963	1525.55737	-341.82028	1568.35327	1451.96692	-370.02441	1416.62561	1447.37598	-418.02600	1105.45544	1449.89368	-252.11859	1333.29126	1446.21960	-217.53818	1166.87598	1551.42346	-428.36386	1246.62598	1294.56079	-299.88425	1373.37878	1226.34167	-342.80054	1178.54358	1214.17969	-355.94189	1055.68518	1214.23132	-343.28381	925.79968	1246.04919	-334.88745	806.41461	1196.48218	-361.05130	813.84344	1207.36292	-353.09711	729.48047	1609.25635	-289.89450	1360.47351	1690.52441	-254.77614	1147.27356	1705.15588	-212.08444	1044.09253	1701.85205	-151.64337	921.46533	1659.30383	-95.16785	843.04254	1705.50500	-117.91978	827.16406	1692.53577	-70.30199	771.64008	1338.91174	-247.74728	933.62531	1576.07361	-261.57916	938.85858	1377.31262	-412.17120	955.95929	1525.86536	-418.63828	973.55371	1286.13867	-235.66084	635.97162	1329.92542	-166.12581	474.15097	1328.34241	-165.88261	281.50668	1363.87427	-125.54366	73.94457	1403.62158	-158.07990	33.69796	1389.15576	25.02271	64.82566	1607.09680	-355.33353	649.81836	1569.03845	-372.19553	470.92157	1564.42200	-453.84064	296.02017	1507.34741	-517.74554	89.39314	1454.38281	-563.97443	65.36862	1493.32153	-379.96826	36.82511	1444.96924	-304.38248	1675.78516												 
109	1.080	1393.35608	-208.03859	1618.38000	1526.94873	-212.51624	1619.25610	1393.77710	-332.90677	1565.72449	1525.09448	-332.50394	1566.99670	1451.61975	-360.55255	1415.25073	1446.53345	-408.44107	1104.16016	1449.55957	-242.60493	1331.93665	1445.96973	-207.91658	1165.48669	1550.67578	-418.90594	1245.05750	1294.09998	-290.25275	1372.01807	1226.22949	-333.85141	1177.18054	1214.25696	-347.56372	1054.39233	1214.31653	-335.52322	924.41235	1246.18127	-327.59506	804.89349	1196.80481	-354.00760	812.48254	1207.68152	-346.53812	728.08362	1608.91919	-280.58923	1358.98279	1690.24927	-245.30365	1145.92664	1704.88464	-202.54640	1042.83948	1700.94043	-141.01686	920.88873	1657.79395	-83.87025	843.26544	1703.98804	-106.29078	826.89001	1690.70422	-58.00924	772.18414	1338.89844	-237.84732	931.93610	1576.03162	-252.71045	937.45081	1376.50500	-402.25925	954.51508	1525.06287	-409.48819	972.40753	1286.10815	-227.95650	633.36823	1331.95898	-158.18697	472.13358	1329.31006	-151.29141	280.88403	1363.70911	-102.83051	75.06853	1403.13159	-133.62744	32.99507	1389.30591	48.55695	70.36091	1607.14685	-348.46146	649.08490	1569.24414	-366.51190	470.23660	1564.48083	-450.13550	296.12643	1507.35181	-517.00983	90.42016	1454.37817	-563.57739	66.94022	1493.33899	-379.82019	36.79049															 
110	1.090	1392.80933	-198.86636	1617.26233	1526.35657	-203.31779	1618.26843	1393.32727	-323.57510	1564.21399	1524.62390	-323.16806	1565.63281	1451.17822	-350.96066	1413.88538	1445.68799	-398.68121	1102.78809	1449.19177	-232.91663	1330.60791	1445.69739	-198.20052	1164.14746	1549.85986	-409.43936	1243.49475	1293.65393	-280.59143	1370.64038	1225.92603	-324.63629	1175.70422	1214.38550	-338.85110	1052.85840	1214.43005	-327.44980	922.81055	1246.42542	-320.01169	803.39050	1197.00586	-346.52988	811.04346	1207.90271	-339.54712	726.62189	1608.62903	-271.17963	1357.49829	1689.95911	-235.84848	1144.50061	1704.53186	-193.09724	1041.52966	1699.97266	-130.58376	920.12280	1656.40735	-72.82050	843.39191	1702.42065	-95.02811	826.43622	1688.80945	-46.14665	772.36157	1338.84973	-228.05888	930.04584	1575.95605	-243.81432	936.07123	1375.72778	-392.68188	953.26172	1524.28723	-400.37979	971.21814	1286.45630	-220.11693	630.84973	1333.96033	-149.99283	470.31354	1330.33936	-137.32681	280.48547	1363.51184	-81.65037	76.13329	1402.77246	-110.95536	32.90565	1388.87744	70.18987	75.47333	1607.04883	-341.41827	648.40167	1569.41772	-360.78647	469.56750	1564.23425	-446.85831	296.46924	1507.28638	-516.33655	91.59576	1454.29407	-563.13934	68.66388	1493.36426	-379.70883	36.74367	1443.22925	-285.97281	1672.66724												 
111	1.100	1391.76257	-189.76222	1616.29028	1525.80200	-194.00351	1617.35828	1392.75610	-314.25125	1562.79016	1524.06006	-313.81735	1564.32849	1450.69690	-341.26825	1412.42468	1444.92371	-389.08578	1101.50317	1448.77026	-223.19891	1329.22656	1445.31372	-188.41354	1162.80518	1549.04944	-399.86884	1241.99695	1293.08142	-270.82523	1369.22363	1225.81311	-315.08447	1174.13550	1214.45288	-329.71799	1051.17334	1214.53967	-318.90137	921.15356	1246.47839	-312.09869	801.78918	1197.20752	-338.80191	809.52777	1208.12097	-332.23999	725.10822	1608.26038	-261.68604	1356.06677	1689.59314	-226.46599	1143.03394	1704.05542	-183.69400	1040.09326	1699.02563	-120.46533	919.20569	1655.00183	-62.14090	843.25531	1700.87512	-84.24476	825.77283	1686.92053	-34.79189	772.32019	1338.79321	-217.91893	928.51111	1575.84106	-234.73749	934.70850	1374.90137	-382.90649	951.96350	1523.45532	-391.12143	970.10016	1286.91443	-211.82896	628.53857	1335.78979	-141.32553	468.42764	1331.10571	-124.01563	280.20413	1363.45276	-62.38604	77.12329	1402.59277	-90.53646	33.10007	1387.95337	89.79962	79.81757	1607.22266	-334.30527	647.78668	1569.62988	-354.93350	468.98868	1564.22852	-443.35419	296.89819	1507.30322	-515.59833	92.96837	1454.24084	-562.58844	70.61310	1493.40186	-379.56256	36.72240	1443.43127	-277.28568	1672.15295												 
